<svg xmlns="http://www.w3.org/2000/svg" viewBox="0 0 100.37 100.37">
  <title>brand-experience</title>
  <g>
    <g>
      <path d="M34.54,61.84v-8A3.28,3.28,0,0,1,37,50.66L75.51,40.47A3.29,3.29,0,0,0,78,37.29V26.82a3.28,3.28,0,0,0-3.28-3.29H67.45" fill="none" stroke="#363945" stroke-linejoin="round" stroke-width="4.38"/>
      <rect x="25.5" y="61.84" width="18.07" height="33.76" rx="4.38" fill="#161d25"/>
      <rect x="1.62" y="10.23" width="65.83" height="26.61" rx="4.38" fill="#54bbff"/>
      <circle cx="10.73" cy="24.83" r="2.38" fill="#3ea9f5"/>
      <circle cx="15.49" cy="29.59" r="2.38" fill="#3ea9f5"/>
      <circle cx="20.25" cy="24.83" r="2.38" fill="#3ea9f5"/>
      <circle cx="25.01" cy="29.59" r="2.38" fill="#3ea9f5"/>
      <circle cx="29.77" cy="24.83" r="2.38" fill="#3ea9f5"/>
      <circle cx="34.54" cy="29.59" r="2.38" fill="#3ea9f5"/>
      <circle cx="39.3" cy="24.83" r="2.38" fill="#3ea9f5"/>
      <circle cx="44.06" cy="29.59" r="2.38" fill="#3ea9f5"/>
      <circle cx="48.82" cy="24.83" r="2.38" fill="#3ea9f5"/>
      <circle cx="53.58" cy="29.59" r="2.38" fill="#3ea9f5"/>
      <circle cx="58.34" cy="24.83" r="2.38" fill="#3ea9f5"/>
    </g>
    <rect width="100.37" height="100.37" fill="none"/>
  </g>
</svg>
