<svg xmlns="http://www.w3.org/2000/svg" viewBox="0 0 100.37 100.71">
  <title>convert-viewers</title>
  <g style="isolation: isolate">
    <g>
      <g>
        <path d="M43.73,0h9.47a4.35,4.35,0,0,1,4.35,4.35v18.8a0,0,0,0,1,0,0H39.38a0,0,0,0,1,0,0V4.35A4.35,4.35,0,0,1,43.73,0Z" fill="#161d25"/>
        <path d="M16.15,77.55H34.32L27.69,97.71a4.36,4.36,0,0,1-4.14,3H13a3.27,3.27,0,0,1-3.1-4.29Z" fill="#161d25"/>
        <path d="M62.6,77.55H80.77L87,96.42a3.27,3.27,0,0,1-3.1,4.29H73.37a4.34,4.34,0,0,1-4.13-3Z" fill="#161d25"/>
        <circle cx="48.46" cy="53.62" r="41.43" fill="#ee5178"/>
        <circle cx="48.46" cy="53.62" r="27.2" fill="#efefef"/>
        <circle cx="48.46" cy="53.62" r="10.88" fill="#ee5178"/>
        <path d="M85.63,45.6a1.54,1.54,0,0,0-1-1.41L78,41.8l.1,0a1.74,1.74,0,1,0-1.47-3.16l-.1,0L79,32.08a1.57,1.57,0,0,0-.41-1.7,1.59,1.59,0,0,0-1.74-.27l-8.71,4.06a1.57,1.57,0,0,0-.81.89l-3.47,9.52-16,7.47a1.76,1.76,0,0,0,.14,3.23,1.78,1.78,0,0,0,1.34-.06l16-7.47,9.52,3.46a1.56,1.56,0,0,0,1.2-.05l8.71-4.06A1.57,1.57,0,0,0,85.63,45.6Z" fill="#363945" opacity="0.2" style="mix-blend-mode: multiply"/>
        <path d="M78.39,34.78A1.48,1.48,0,0,0,77,33.87H68.21V25.05a1.48,1.48,0,0,0-2.52-1l-6.34,6.34a1.49,1.49,0,0,0-.44,1V41.69a1.47,1.47,0,0,0,1.48,1.47H70.68a1.44,1.44,0,0,0,1-.43l6.35-6.35A1.46,1.46,0,0,0,78.39,34.78Z" fill="#75cca4"/>
        <path d="M58.91,41.69a1.47,1.47,0,0,0,1.48,1.47H70.68a1.44,1.44,0,0,0,1-.43l6.35-6.35a1.46,1.46,0,0,0,.32-1.6A1.48,1.48,0,0,0,77,33.87H68.21" fill="#3ab16a"/>
        <line x1="48.39" y1="53.68" x2="69.43" y2="32.64" fill="none" stroke="#161d25" stroke-linecap="round" stroke-linejoin="round" stroke-width="3.26"/>
      </g>
      <rect width="100.37" height="100.37" fill="none"/>
    </g>
  </g>
</svg>
