<svg xmlns="http://www.w3.org/2000/svg" viewBox="0 0 100.37 100.71">
  <title>inform-strategy</title>
  <g style="isolation: isolate">
    <g>
      <g>
        <g>
          <path d="M89.71,85.93H56.89l7.26-29.62c0-4.57,18.29-4.57,18.29,0Z" fill="#b2b9c1"/>
          <circle cx="73.3" cy="45.45" r="13.97" fill="#b2b9c1"/>
          <path d="M82.43,52.57a19.29,19.29,0,0,1-18.54-14,1.41,1.41,0,0,0-2.58-.34A14,14,0,0,0,83.53,55a1.42,1.42,0,0,0-1.07-2.38Z" fill="#b2b9c1" opacity="0.5" style="mix-blend-mode: multiply"/>
          <path d="M85.87,70.29c-.13,0-1.33,0-1.46,0H61.55c-.13,0-.7,0-.83,0l1.4-5.68H84.48Z" fill="#b2b9c1" opacity="0.5" style="mix-blend-mode: multiply"/>
          <rect x="58.76" y="56.01" width="29.09" height="8.6" rx="3.11" fill="#b2b9c1"/>
          <rect x="49.26" y="84.98" width="48.07" height="15.73" rx="3.7" fill="#b2b9c1"/>
          <path d="M97.33,96.84a3.72,3.72,0,0,1-3.55,3.87h-41a3.72,3.72,0,0,1-3.55-3.87v-4H97.33Z" fill="#b2b9c1" opacity="0.5" style="mix-blend-mode: multiply"/>
        </g>
        <g>
          <path d="M44.8,49.51H23.12A3.15,3.15,0,0,1,20,46.9L16.24,25.31a3.16,3.16,0,0,1,3.11-3.7H48.56a3.15,3.15,0,0,1,3.11,3.7L47.91,46.9A3.15,3.15,0,0,1,44.8,49.51Z" fill="#363945"/>
          <path d="M31.37,2.32h5.17a2.51,2.51,0,0,1,2.51,2.51v17.9a0,0,0,0,1,0,0H28.86a0,0,0,0,1,0,0V4.83A2.51,2.51,0,0,1,31.37,2.32Z" fill="#363945"/>
          <rect x="28.86" y="2.32" width="10.19" height="20.4" rx="2.51" transform="translate(46.48 -21.43) rotate(90)" fill="#363945"/>
          <path d="M54.31,84.5H13.61l9.52-37.84c0-5.41,21.66-5.41,21.66,0Z" fill="#363945"/>
          <path d="M19.35,21.61h0a3.16,3.16,0,0,0-3.11,3.7L20,46.9a3.15,3.15,0,0,0,3.11,2.61H44.8a3.15,3.15,0,0,0,3.11-2.61l.25-1.43a1.57,1.57,0,0,0-1.37-1.85A31.56,31.56,0,0,1,20.62,22.53,1.34,1.34,0,0,0,19.35,21.61Z" fill="#161d25" opacity="0.7"/>
          <rect x="16.73" y="46.31" width="34.45" height="10.18" rx="3.69" fill="#363945"/>
          <rect x="5.09" y="84.51" width="57.73" height="16.2" rx="3.65" fill="#363945"/>
          <rect x="28.86" y="17.62" width="10.19" height="3.99" fill="#161d25" opacity="0.7"/>
          <polygon points="48.99 63.35 18.93 63.35 20.67 56.49 47.26 56.49 48.99 63.35" fill="#161d25" opacity="0.7"/>
          <path d="M62.82,96.73a3.82,3.82,0,0,1-3.65,4H8.75a3.83,3.83,0,0,1-3.66-4V92.61H62.82Z" fill="#161d25" opacity="0.7"/>
        </g>
      </g>
      <rect width="100.37" height="100.37" fill="none"/>
    </g>
  </g>
</svg>
