<?xml version="1.0" encoding="utf-8"?>
<!-- Generator: Adobe Illustrator 19.2.1, SVG Export Plug-In . SVG Version: 6.00 Build 0)  -->
<svg version="1.1" id="layer" xmlns="http://www.w3.org/2000/svg" xmlns:xlink="http://www.w3.org/1999/xlink" x="0px" y="0px"
	 viewBox="0 0 652 652" style="enable-background:new 0 0 652 652;" xml:space="preserve">
<style type="text/css">
	.st0{fill:#1E306E;}
</style>
<path class="st0" d="M207.5,267.2c-28.8,0-50.6,20.6-50.6,50s21.9,50,50.6,50c13.8,0,24.4-6.3,28.7-11.3v10h22.5v-97.5h-22.5v10
	C231.9,273.4,220.6,267.2,207.5,267.2 M208.1,346.6c-16.9,0-29.4-13.1-29.4-29.4s13.1-29.4,29.4-29.4s28.7,13.1,28.7,29.4
	S224.4,346.6,208.1,346.6 M401.2,267.2c-13.1,0-23.1,5-29.4,11.3v-10H350v148.8l21.9-2.5v-59.4c6.3,6.9,16.9,11.3,29.4,11.3
	c30,0,50-19.4,50-50C451.2,286.6,431.3,267.2,401.2,267.2 M400.6,346.6c-17.5,0-28.7-12.5-28.7-29.4s11.3-29.4,28.7-29.4
	c17.5,0,29.4,12.5,29.4,29.4C429.4,334.1,418.1,346.6,400.6,346.6 M620,267.2c-13.7,0-21.3,5-25.6,11.3v-10h-21.9v97.5h21.9v-53.8
	c0-14.4,10-24.4,23.8-24.4h1.9C620,287.8,620,267.2,620,267.2z M510,267.2c-28.7,0-51.2,22.5-51.2,50s22.5,50,51.2,50
	c23.8,0,43.1-13.1,49.4-30.6h-26.3c-3.1,6.3-11.3,10.6-23.1,10.6c-14.4,0-25.6-10-28.1-22.5H560c0.6-2.5,0.6-5,0.6-7.5
	C560.6,289.7,538.1,267.2,510,267.2 M483.1,305.3c3.1-10,13.8-18.1,26.9-18.1c12.5,0,23.8,8.1,26.9,18.1
	C536.9,305.3,483.1,305.3,483.1,305.3z M305.6,286.6c-4.4,0-9.4,1.9-9.4,7.5c0,6.3,6.3,8.1,18.1,12.5c16.2,6.3,24.4,13.8,24.4,28.8
	c0,15.6-13.1,31.9-35.6,31.9s-34.4-16.9-35-30.6h21.3c1.3,6.3,6.3,11.3,13.8,11.3c8.1,0,13.1-5.6,13.1-11.9c0-4.4-1.9-9.4-15.6-13.1
	c-15-3.8-25.6-11.9-25.6-28.1c0-15,13.1-26.9,30-26.9c15,0,24.4,10.6,28.7,17.5l-18.1,8.1C313.1,288.4,309.4,286.6,305.6,286.6"/>
<path class="st0" d="M90.6,227.2c-40,0-70.6,31.2-70.6,70s30.6,70,70.6,70c25.6,0,49.4-13.8,60-33.1L130,322.8
	c-8.1,14.4-21.9,22.5-39.4,22.5c-12.5,0-25-5-33.1-13.8c-8.8-9.4-13.7-21.3-13.7-33.8s5-24.4,13.7-33.8c8.1-8.8,20-13.8,33.1-13.8
	c13.8,0,21.9,4.4,27.5,8.8c6.3,4.4,12.5,8.8,23.1,8.8c19.4,0,28.1-15.6,30-23.8l-21.9-4.4c0,0.6-1.9,6.9-8.1,6.9
	c-3.1,0-5-1.3-9.4-4.4C123.8,234.7,113.1,227.2,90.6,227.2"/>
</svg>
