<svg width="369" height="287" xmlns="http://www.w3.org/2000/svg"><g fill="none" fill-rule="evenodd"><path d="M368.109 109.964s-8.532 16.98-51.122 43.822c-18.154 11.421-55.851 23.57-104.318 28.253-26.17 2.541-74.35.477-95.022.477-20.779 0-30.302 4.377-48.937 25.365L0 285.333s23.793.116 41.763.116c17.967 0 130.345 6.525 180.205-7.188 161.935-44.507 146.141-168.297 146.141-168.297" fill="#148EE0"/><path d="M363.763 60.755C371.553 13.251 344.718.197 344.718.197s1.133 38.672-69.938 46.872C211.7 54.346 0 48.862 0 48.862l68.036 78.02c18.426 21.15 28.207 23.601 48.924 25.066 20.717 1.389 66.44.895 97.434-1.465 33.879-2.599 82.162-13.646 114.811-38.931 16.741-12.951 31.303-30.953 34.558-50.797" fill="#54BBFF"/></g></svg>